<?xml version="1.0" encoding="UTF-8" standalone="no"?>
<!DOCTYPE svg PUBLIC "-//W3C//DTD SVG 1.1//EN"
 "http://www.w3.org/Graphics/SVG/1.1/DTD/svg11.dtd">
<!-- Generated by graphviz version 2.40.1 (20161225.0304)
 -->
<!-- Title: dependencies Pages: 1 -->
<svg width="2416pt" height="284pt"
 viewBox="0.00 0.00 2416.00 284.00" xmlns="http://www.w3.org/2000/svg" xmlns:xlink="http://www.w3.org/1999/xlink">
<g id="graph0" class="graph" transform="scale(1 1) rotate(0) translate(4 280)">
<title>dependencies</title>
<polygon fill="#ffffff" stroke="transparent" points="-4,4 -4,-280 2412,-280 2412,4 -4,4"/>
<text text-anchor="start" x="1183.0091" y="-42.4" font-family="sans-serif" font-weight="bold" font-size="14.00" fill="#000000">Legend</text>
<polygon fill="#ffffb3" stroke="transparent" points="970,-10 970,-30 990,-30 990,-10 970,-10"/>
<text text-anchor="start" x="993.629" y="-15.4" font-family="sans-serif" font-size="14.00" fill="#000000"> &#160;Declarations</text>
<polygon fill="#8dd3c7" stroke="transparent" points="1083,-10 1083,-30 1103,-30 1103,-10 1083,-10"/>
<text text-anchor="start" x="1106.7251" y="-15.4" font-family="sans-serif" font-size="14.00" fill="#000000"> &#160;Module</text>
<polygon fill="#80b1d3" stroke="transparent" points="1169,-10 1169,-30 1189,-30 1189,-10 1169,-10"/>
<text text-anchor="start" x="1192.7812" y="-15.4" font-family="sans-serif" font-size="14.00" fill="#000000"> &#160;Bootstrap</text>
<polygon fill="#fdb462" stroke="transparent" points="1266,-10 1266,-30 1286,-30 1286,-10 1266,-10"/>
<text text-anchor="start" x="1289.6732" y="-15.4" font-family="sans-serif" font-size="14.00" fill="#000000"> &#160;Providers</text>
<polygon fill="#fb8072" stroke="transparent" points="1362,-10 1362,-30 1382,-30 1382,-10 1362,-10"/>
<text text-anchor="start" x="1385.7258" y="-15.4" font-family="sans-serif" font-size="14.00" fill="#000000"> &#160;Exports</text>
<g id="clust1" class="cluster">
<title>cluster_AppModule</title>
<polygon fill="none" stroke="#000000" stroke-dasharray="1,5" points="8,-70 8,-268 2400,-268 2400,-70 8,-70"/>
</g>
<g id="clust2" class="cluster">
<title>cluster_AppModule_declarations</title>
<polygon fill="none" stroke="#000000" points="274,-78 274,-130 2392,-130 2392,-78 274,-78"/>
</g>
<g id="clust17" class="cluster">
<title>cluster_AppModule_imports</title>
<polygon fill="none" stroke="#000000" points="164,-78 164,-130 266,-130 266,-78 164,-78"/>
</g>
<g id="clust19" class="cluster">
<title>cluster_AppModule_bootstrap</title>
<polygon fill="none" stroke="#000000" points="1121,-208 1121,-260 1245,-260 1245,-208 1121,-208"/>
</g>
<g id="clust20" class="cluster">
<title>cluster_AppModule_providers</title>
<polygon fill="none" stroke="#000000" points="16,-78 16,-130 156,-130 156,-78 16,-78"/>
</g>
<!-- AppComponent -->
<g id="node1" class="node">
<title>AppComponent</title>
<polygon fill="#ffffb3" stroke="#000000" points="2383.9399,-122 2278.0601,-122 2278.0601,-86 2383.9399,-86 2383.9399,-122"/>
<text text-anchor="middle" x="2331" y="-99.8" font-family="Times,serif" font-size="14.00" fill="#000000">AppComponent</text>
</g>
<!-- AppModule -->
<g id="node15" class="node">
<title>AppModule</title>
<polygon fill="#8dd3c7" stroke="#000000" points="1224.6571,-187 1221.6571,-191 1200.6571,-191 1197.6571,-187 1141.3429,-187 1141.3429,-151 1224.6571,-151 1224.6571,-187"/>
<text text-anchor="middle" x="1183" y="-164.8" font-family="Times,serif" font-size="14.00" fill="#000000">AppModule</text>
</g>
<!-- AppComponent&#45;&gt;AppModule -->
<g id="edge1" class="edge">
<title>AppComponent&#45;&gt;AppModule</title>
<path fill="none" stroke="#000000" d="M2331,-122.3228C2331,-145.6602 2331,-183 2331,-183 2331,-183 1234.8771,-183 1234.8771,-183"/>
<polygon fill="#000000" stroke="#000000" points="1234.8772,-179.5001 1224.8771,-183 1234.8771,-186.5001 1234.8772,-179.5001"/>
</g>
<!-- CreateUserComponent -->
<g id="node2" class="node">
<title>CreateUserComponent</title>
<polygon fill="#ffffb3" stroke="#000000" points="2260.2907,-122 2115.7093,-122 2115.7093,-86 2260.2907,-86 2260.2907,-122"/>
<text text-anchor="middle" x="2188" y="-99.8" font-family="Times,serif" font-size="14.00" fill="#000000">CreateUserComponent</text>
</g>
<!-- CreateUserComponent&#45;&gt;AppModule -->
<g id="edge2" class="edge">
<title>CreateUserComponent&#45;&gt;AppModule</title>
<path fill="none" stroke="#000000" d="M2188,-122.2921C2188,-144.2057 2188,-178 2188,-178 2188,-178 1234.9041,-178 1234.9041,-178"/>
<polygon fill="#000000" stroke="#000000" points="1234.9041,-174.5001 1224.9041,-178 1234.9041,-181.5001 1234.9041,-174.5001"/>
</g>
<!-- DatabaseConnecterComponent -->
<g id="node3" class="node">
<title>DatabaseConnecterComponent</title>
<polygon fill="#ffffb3" stroke="#000000" points="2098.1643,-122 1907.8357,-122 1907.8357,-86 2098.1643,-86 2098.1643,-122"/>
<text text-anchor="middle" x="2003" y="-99.8" font-family="Times,serif" font-size="14.00" fill="#000000">DatabaseConnecterComponent</text>
</g>
<!-- DatabaseConnecterComponent&#45;&gt;AppModule -->
<g id="edge3" class="edge">
<title>DatabaseConnecterComponent&#45;&gt;AppModule</title>
<path fill="none" stroke="#000000" d="M2003,-122.0267C2003,-142.7672 2003,-174 2003,-174 2003,-174 1234.7913,-174 1234.7913,-174"/>
<polygon fill="#000000" stroke="#000000" points="1234.7913,-170.5001 1224.7913,-174 1234.7912,-177.5001 1234.7913,-170.5001"/>
</g>
<!-- DropdownComponent -->
<g id="node4" class="node">
<title>DropdownComponent</title>
<polygon fill="#ffffb3" stroke="#000000" points="1889.7064,-122 1748.2936,-122 1748.2936,-86 1889.7064,-86 1889.7064,-122"/>
<text text-anchor="middle" x="1819" y="-99.8" font-family="Times,serif" font-size="14.00" fill="#000000">DropdownComponent</text>
</g>
<!-- DropdownComponent&#45;&gt;AppModule -->
<g id="edge4" class="edge">
<title>DropdownComponent&#45;&gt;AppModule</title>
<path fill="none" stroke="#000000" d="M1819,-122.1061C1819,-141.3391 1819,-169 1819,-169 1819,-169 1234.7297,-169 1234.7297,-169"/>
<polygon fill="#000000" stroke="#000000" points="1234.7298,-165.5001 1224.7297,-169 1234.7297,-172.5001 1234.7298,-165.5001"/>
</g>
<!-- FrameComponent -->
<g id="node5" class="node">
<title>FrameComponent</title>
<polygon fill="#ffffb3" stroke="#000000" points="1730.5954,-122 1613.4046,-122 1613.4046,-86 1730.5954,-86 1730.5954,-122"/>
<text text-anchor="middle" x="1672" y="-99.8" font-family="Times,serif" font-size="14.00" fill="#000000">FrameComponent</text>
</g>
<!-- FrameComponent&#45;&gt;AppModule -->
<g id="edge5" class="edge">
<title>FrameComponent&#45;&gt;AppModule</title>
<path fill="none" stroke="#000000" d="M1672,-122.302C1672,-140.2699 1672,-165 1672,-165 1672,-165 1234.6919,-165 1234.6919,-165"/>
<polygon fill="#000000" stroke="#000000" points="1234.6919,-161.5001 1224.6919,-165 1234.6918,-168.5001 1234.6919,-161.5001"/>
</g>
<!-- HeaderComponent -->
<g id="node6" class="node">
<title>HeaderComponent</title>
<polygon fill="#ffffb3" stroke="#000000" points="1595.7437,-122 1474.2563,-122 1474.2563,-86 1595.7437,-86 1595.7437,-122"/>
<text text-anchor="middle" x="1535" y="-99.8" font-family="Times,serif" font-size="14.00" fill="#000000">HeaderComponent</text>
</g>
<!-- HeaderComponent&#45;&gt;AppModule -->
<g id="edge6" class="edge">
<title>HeaderComponent&#45;&gt;AppModule</title>
<path fill="none" stroke="#000000" d="M1535,-122.027C1535,-138.3976 1535,-160 1535,-160 1535,-160 1234.7613,-160 1234.7613,-160"/>
<polygon fill="#000000" stroke="#000000" points="1234.7613,-156.5001 1224.7613,-160 1234.7613,-163.5001 1234.7613,-156.5001"/>
</g>
<!-- LoginComponent -->
<g id="node7" class="node">
<title>LoginComponent</title>
<polygon fill="#ffffb3" stroke="#000000" points="1456.2758,-122 1341.7242,-122 1341.7242,-86 1456.2758,-86 1456.2758,-122"/>
<text text-anchor="middle" x="1399" y="-99.8" font-family="Times,serif" font-size="14.00" fill="#000000">LoginComponent</text>
</g>
<!-- LoginComponent&#45;&gt;AppModule -->
<g id="edge7" class="edge">
<title>LoginComponent&#45;&gt;AppModule</title>
<path fill="none" stroke="#000000" d="M1399,-122.1871C1399,-137.1824 1399,-156 1399,-156 1399,-156 1234.9031,-156 1234.9031,-156"/>
<polygon fill="#000000" stroke="#000000" points="1234.9031,-152.5001 1224.9031,-156 1234.9031,-159.5001 1234.9031,-152.5001"/>
</g>
<!-- RewardsComponent -->
<g id="node8" class="node">
<title>RewardsComponent</title>
<polygon fill="#ffffb3" stroke="#000000" points="1323.3104,-122 1192.6896,-122 1192.6896,-86 1323.3104,-86 1323.3104,-122"/>
<text text-anchor="middle" x="1258" y="-99.8" font-family="Times,serif" font-size="14.00" fill="#000000">RewardsComponent</text>
</g>
<!-- RewardsComponent&#45;&gt;AppModule -->
<g id="edge8" class="edge">
<title>RewardsComponent&#45;&gt;AppModule</title>
<path fill="none" stroke="#000000" d="M1208.8366,-122.1061C1208.8366,-122.1061 1208.8366,-140.991 1208.8366,-140.991"/>
<polygon fill="#000000" stroke="#000000" points="1205.3367,-140.9909 1208.8366,-150.991 1212.3367,-140.991 1205.3367,-140.9909"/>
</g>
<!-- StatisticsComponent -->
<g id="node9" class="node">
<title>StatisticsComponent</title>
<polygon fill="#ffffb3" stroke="#000000" points="1174.8864,-122 1043.1136,-122 1043.1136,-86 1174.8864,-86 1174.8864,-122"/>
<text text-anchor="middle" x="1109" y="-99.8" font-family="Times,serif" font-size="14.00" fill="#000000">StatisticsComponent</text>
</g>
<!-- StatisticsComponent&#45;&gt;AppModule -->
<g id="edge9" class="edge">
<title>StatisticsComponent&#45;&gt;AppModule</title>
<path fill="none" stroke="#000000" d="M1158.0575,-122.1061C1158.0575,-122.1061 1158.0575,-140.991 1158.0575,-140.991"/>
<polygon fill="#000000" stroke="#000000" points="1154.5576,-140.9909 1158.0575,-150.991 1161.5576,-140.991 1154.5576,-140.9909"/>
</g>
<!-- UsersComponent -->
<g id="node10" class="node">
<title>UsersComponent</title>
<polygon fill="#ffffb3" stroke="#000000" points="1024.7036,-122 911.2964,-122 911.2964,-86 1024.7036,-86 1024.7036,-122"/>
<text text-anchor="middle" x="968" y="-99.8" font-family="Times,serif" font-size="14.00" fill="#000000">UsersComponent</text>
</g>
<!-- UsersComponent&#45;&gt;AppModule -->
<g id="edge10" class="edge">
<title>UsersComponent&#45;&gt;AppModule</title>
<path fill="none" stroke="#000000" d="M968,-122.1871C968,-137.1824 968,-156 968,-156 968,-156 1131.2909,-156 1131.2909,-156"/>
<polygon fill="#000000" stroke="#000000" points="1131.2909,-159.5001 1141.2909,-156 1131.2909,-152.5001 1131.2909,-159.5001"/>
</g>
<!-- UsersDetailComponent -->
<g id="node11" class="node">
<title>UsersDetailComponent</title>
<polygon fill="#ffffb3" stroke="#000000" points="893.9116,-122 746.0884,-122 746.0884,-86 893.9116,-86 893.9116,-122"/>
<text text-anchor="middle" x="820" y="-99.8" font-family="Times,serif" font-size="14.00" fill="#000000">UsersDetailComponent</text>
</g>
<!-- UsersDetailComponent&#45;&gt;AppModule -->
<g id="edge11" class="edge">
<title>UsersDetailComponent&#45;&gt;AppModule</title>
<path fill="none" stroke="#000000" d="M820,-122.027C820,-138.3976 820,-160 820,-160 820,-160 1131.0047,-160 1131.0047,-160"/>
<polygon fill="#000000" stroke="#000000" points="1131.0047,-163.5001 1141.0047,-160 1131.0046,-156.5001 1131.0047,-163.5001"/>
</g>
<!-- UsersEditComponent -->
<g id="node12" class="node">
<title>UsersEditComponent</title>
<polygon fill="#ffffb3" stroke="#000000" points="728.038,-122 591.962,-122 591.962,-86 728.038,-86 728.038,-122"/>
<text text-anchor="middle" x="660" y="-99.8" font-family="Times,serif" font-size="14.00" fill="#000000">UsersEditComponent</text>
</g>
<!-- UsersEditComponent&#45;&gt;AppModule -->
<g id="edge12" class="edge">
<title>UsersEditComponent&#45;&gt;AppModule</title>
<path fill="none" stroke="#000000" d="M660,-122.302C660,-140.2699 660,-165 660,-165 660,-165 1131.0848,-165 1131.0848,-165"/>
<polygon fill="#000000" stroke="#000000" points="1131.0848,-168.5001 1141.0848,-165 1131.0848,-161.5001 1131.0848,-168.5001"/>
</g>
<!-- UsersItemComponent -->
<g id="node13" class="node">
<title>UsersItemComponent</title>
<polygon fill="#ffffb3" stroke="#000000" points="573.3599,-122 434.6401,-122 434.6401,-86 573.3599,-86 573.3599,-122"/>
<text text-anchor="middle" x="504" y="-99.8" font-family="Times,serif" font-size="14.00" fill="#000000">UsersItemComponent</text>
</g>
<!-- UsersItemComponent&#45;&gt;AppModule -->
<g id="edge13" class="edge">
<title>UsersItemComponent&#45;&gt;AppModule</title>
<path fill="none" stroke="#000000" d="M504,-122.1061C504,-141.3391 504,-169 504,-169 504,-169 1131.2931,-169 1131.2931,-169"/>
<polygon fill="#000000" stroke="#000000" points="1131.2931,-172.5001 1141.2931,-169 1131.2931,-165.5001 1131.2931,-172.5001"/>
</g>
<!-- UsersListComponent -->
<g id="node14" class="node">
<title>UsersListComponent</title>
<polygon fill="#ffffb3" stroke="#000000" points="416.4818,-122 281.5182,-122 281.5182,-86 416.4818,-86 416.4818,-122"/>
<text text-anchor="middle" x="349" y="-99.8" font-family="Times,serif" font-size="14.00" fill="#000000">UsersListComponent</text>
</g>
<!-- UsersListComponent&#45;&gt;AppModule -->
<g id="edge14" class="edge">
<title>UsersListComponent&#45;&gt;AppModule</title>
<path fill="none" stroke="#000000" d="M349,-122.0267C349,-142.7672 349,-174 349,-174 349,-174 1131.0703,-174 1131.0703,-174"/>
<polygon fill="#000000" stroke="#000000" points="1131.0703,-177.5001 1141.0703,-174 1131.0702,-170.5001 1131.0703,-177.5001"/>
</g>
<!-- AppComponent  -->
<g id="node17" class="node">
<title>AppComponent </title>
<polygon fill="#80b1d3" stroke="#000000" points="1237.439,-252 1128.561,-252 1128.561,-216 1237.439,-216 1237.439,-252"/>
<text text-anchor="middle" x="1183" y="-229.8" font-family="Times,serif" font-size="14.00" fill="#000000">AppComponent </text>
</g>
<!-- AppModule&#45;&gt;AppComponent  -->
<g id="edge16" class="edge">
<title>AppModule&#45;&gt;AppComponent </title>
<path fill="none" stroke="#000000" stroke-dasharray="1,5" d="M1183,-187.1061C1183,-187.1061 1183,-205.991 1183,-205.991"/>
<polygon fill="#000000" stroke="#000000" points="1179.5001,-205.9909 1183,-215.991 1186.5001,-205.991 1179.5001,-205.9909"/>
</g>
<!-- AppRouting -->
<g id="node16" class="node">
<title>AppRouting</title>
<polygon fill="#8dd3c7" stroke="#000000" points="257.7247,-122 254.7247,-126 233.7247,-126 230.7247,-122 172.2753,-122 172.2753,-86 257.7247,-86 257.7247,-122"/>
<text text-anchor="middle" x="215" y="-99.8" font-family="Times,serif" font-size="14.00" fill="#000000">AppRouting</text>
</g>
<!-- AppRouting&#45;&gt;AppModule -->
<g id="edge15" class="edge">
<title>AppRouting&#45;&gt;AppModule</title>
<path fill="none" stroke="#000000" d="M215,-122.2921C215,-144.2057 215,-178 215,-178 215,-178 1131.0956,-178 1131.0956,-178"/>
<polygon fill="#000000" stroke="#000000" points="1131.0956,-181.5001 1141.0956,-178 1131.0955,-174.5001 1131.0956,-181.5001"/>
</g>
<!-- UsersService -->
<g id="node18" class="node">
<title>UsersService</title>
<ellipse fill="#fdb462" stroke="#000000" cx="86" cy="-104" rx="61.9519" ry="18"/>
<text text-anchor="middle" x="86" y="-99.8" font-family="Times,serif" font-size="14.00" fill="#000000">UsersService</text>
</g>
<!-- UsersService&#45;&gt;AppModule -->
<g id="edge17" class="edge">
<title>UsersService&#45;&gt;AppModule</title>
<path fill="none" stroke="#000000" d="M86,-122.3228C86,-145.6602 86,-183 86,-183 86,-183 1131.3359,-183 1131.3359,-183"/>
<polygon fill="#000000" stroke="#000000" points="1131.3359,-186.5001 1141.3359,-183 1131.3358,-179.5001 1131.3359,-186.5001"/>
</g>
</g>
</svg>
